<svg xmlns="http://www.w3.org/2000/svg" viewBox="0 0 64 64" role="img" aria-label="openipdata.org">
  <defs>
    <linearGradient id="g" x1="0%" x2="100%" y1="0%" y2="100%">
      <stop offset="0%" stop-color="#0d6f66" />
      <stop offset="100%" stop-color="#142332" />
    </linearGradient>
  </defs>
  <rect width="64" height="64" rx="16" fill="#f3efe7" />
  <path d="M14 32c0-10.02 8.13-18 18-18 4.35 0 8.3 1.48 11.4 4.2l-4.08 4.67A11.7 11.7 0 0 0 32 20.2c-6.54 0-11.8 5.29-11.8 11.8S25.46 43.8 32 43.8c4.45 0 8.52-2.51 10.52-6.47H31.7V31h18.9v2.5c-.82 9.67-8.87 17.3-18.6 17.3-9.95 0-18-8.05-18-17.8Z" fill="url(#g)" />
</svg>
